<svg xmlns="http://www.w3.org/2000/svg" width="229.001" height="203.002" viewBox="0 0 229.001 203.002"><path d="M6.7,203A6.692,6.692,0,0,1,0,196.325V6.681A6.7,6.7,0,0,1,6.7,0H222.307A6.7,6.7,0,0,1,229,6.681V196.325A6.694,6.694,0,0,1,222.307,203Zm4.018-10.684H218.289V10.687H10.713Zm125.51-41.134c0-11.54,7.391-19.233,18.427-19.233a22.194,22.194,0,0,1,11.249,3.1c.43.213.645.586.483.959l-3.536,7.427a.67.67,0,0,1-.068.167.7.7,0,0,1-.95.259,11.9,11.9,0,0,0-6.215-1.5c-4.819,0-8.035,3.527-8.035,8.816S150.793,160,155.612,160a11.9,11.9,0,0,0,6.215-1.5.956.956,0,0,1,.167-.067.7.7,0,0,1,.852.5l3.536,7.423c.161.376-.054.749-.483.963a22.191,22.191,0,0,1-11.249,3.1C143.613,170.414,136.223,162.724,136.223,151.184ZM63.1,169.565a.485.485,0,0,1-.213-.646L75,133.446a1.624,1.624,0,0,1,1.286-.693H87.209a1.63,1.63,0,0,1,1.286.693l12.1,35.472a.5.5,0,0,1,.05.27.485.485,0,0,1-.533.426H89.51a1.247,1.247,0,0,1-1.122-.7l-1.61-5.608H76.709L75.1,168.919a1.252,1.252,0,0,1-1.126.7H63.37a.443.443,0,0,1-.052,0A.477.477,0,0,1,63.1,169.565ZM78.85,155.67h5.787l-2.892-10.148Zm53.569,13.945h-9.268a1.464,1.464,0,0,1-1.125-.7l-9.32-16.612v16.559a.777.777,0,0,1-.806.749h-9.48a.762.762,0,0,1-.748-.749V133.556a.775.775,0,0,1,.748-.8h9.268a1.416,1.416,0,0,1,1.231.693l9.268,16.616V133.556a.817.817,0,0,1,.752-.8h9.509a.79.79,0,0,1,.776.8v35.309a.781.781,0,0,1-.779.75Zm37.764,0c-.374,0-.748-.426-.855-.8V133.5a.6.6,0,0,1,0-.156.676.676,0,0,1,.748-.593h24.376a.828.828,0,0,1,.854.749v8.12a.8.8,0,0,1-.854.746H180.469v4.22h11.468a.641.641,0,0,1,.583.7l-.746,7.48a.94.94,0,0,1-.913.693H180.469V160h14.623a.768.768,0,0,1,.8.693v8.173a.818.818,0,0,1-.8.749Zm-136.7,0a.811.811,0,0,1-.747-.8V133.556a.809.809,0,0,1,.747-.8H45.909c11.354,0,18.908,7.32,18.908,18.431,0,11-7.555,18.431-18.908,18.431ZM43.764,160H46.55c4.125,0,6.909-3.527,6.909-8.816s-2.784-8.816-6.909-8.816H43.764Zm114.273-45.144a1.816,1.816,0,0,1-1.788-1.662V82.051L129.907,34.744c-.594-1.069.239-1.9,1.314-1.9h24.792a3.115,3.115,0,0,1,2.732,1.9l9.777,21.4,9.775-21.4a3.125,3.125,0,0,1,2.742-1.9h24.792c1.072,0,1.905.831,1.308,1.9L180.8,82.051v31.143a1.816,1.816,0,0,1-1.788,1.662Zm-55.187,0a1.808,1.808,0,0,1-1.784-1.662V78.247L89.028,113.073a3.61,3.61,0,0,1-2.98,1.783H72.938a3.607,3.607,0,0,1-2.98-1.783L57.918,78.247v34.947a1.809,1.809,0,0,1-1.787,1.662H34.081a1.7,1.7,0,0,1-1.674-1.662V34.627a1.728,1.728,0,0,1,1.674-1.783H58.993a5.024,5.024,0,0,1,4.051,2.376l16.45,45.407L95.941,35.22a5.022,5.022,0,0,1,4.053-2.376H124.9a1.726,1.726,0,0,1,1.667,1.783v78.567a1.7,1.7,0,0,1-1.667,1.662Z" fill="#ebce7d"/></svg>